<?xml version="1.0" encoding="utf-8"?>
<!-- Generator: Adobe Illustrator 26.0.1, SVG Export Plug-In . SVG Version: 6.00 Build 0)  -->
<svg version="1.1" id="Layer_1" xmlns="http://www.w3.org/2000/svg" xmlns:xlink="http://www.w3.org/1999/xlink" x="0px" y="0px"
	 viewBox="0 0 2000 1600" style="enable-background:new 0 0 2000 1600;" xml:space="preserve">
<style type="text/css">
	.st0{fill:#FF0000;}
	.st1{fill:#282828;}
	.st2{fill:#FFFFFF;}
</style>
<g id="icon_1_">
	<g>
		<path class="st0" d="M1955.1,907.13c-1.24-93.54-55.24-536.51-81.18-605.33c-16.77-44.47-52.24-125.48-118.07-174.89
			c-84.18-63.18-152.83-74.65-240.37-76.42c-61.06-1.24-1043.54,123.36-1162.49,167.13c-88.77,32.65-158.48,74.65-213.19,128.66
			C50.85,434.16,33.73,519.58,47.85,669.77c12.88,136.07,76.59,587.69,108.36,681.04c34.94,103.24,99.54,182.31,206.13,193.78
			c325.26,34.94,402.03-143.66,1158.25-142.07c229.07,0.53,342.9-99.54,390.38-186.72C1966.74,1113.44,1955.98,978.43,1955.1,907.13
			z"/>
		<path class="st1" d="M1490.95,84.9c0.35,0,0.53,0,0.88,0c83.65,1.59,149.13,12.71,229.43,72.89
			c62.83,47.12,96.71,124.42,112.6,166.95c24.71,65.65,76.24,488.33,77.48,577.63c0.88,67.95,11.12,196.78-42,294.55
			c-45,82.95-153.36,178.07-370.79,178.07c-0.53,0-1.06,0-1.59,0c-3.35,0-6.53,0-9.88,0c-648.57,0-767.87,139.77-1017.24,139.77
			c-24.53,0-50.3-1.41-77.83-4.24c-101.65-10.94-163.25-86.48-196.78-184.95c-30.35-89.12-91.06-519.92-103.42-649.81
			c-13.59-143.3,2.82-224.84,87.71-308.67c52.06-51.53,118.6-91.59,203.48-122.66C495.77,202.79,1424.94,84.9,1490.95,84.9
			 M1490.95,9.9c-42,0-316.61,33.53-546.57,64.77c-230.13,31.24-518.68,73.95-587.51,99.18c-94.95,34.94-170.31,80.65-230.13,139.77
			C16.62,422.34,3.2,535.46,16.97,682.83c10.77,114.18,72,564.04,107.12,666.93c47.3,138.89,139.42,222.37,259.61,235.25
			c29.65,3.18,57.89,4.77,85.95,4.77c105.36,0,188.84-22.41,285.55-48.36c152.13-40.77,341.32-91.42,731.87-91.42h9.71h1.76
			c95.65,0,329.85-21.18,436.44-217.25c57-104.83,53.65-232.07,51.71-308.14c-0.18-8.47-0.35-16.24-0.53-23.3
			c-1.24-90.71-53.12-525.21-82.24-603.04c-33.71-89.83-80.12-157.25-137.83-200.48c-94.07-70.59-174.01-85.95-272.66-87.89h-0.71
			L1490.95,9.9L1490.95,9.9z"/>
	</g>
	<g>
		<path class="st2" d="M1294.17,785.89c-2.47,1.41-4.94,3-7.24,4.41c-19.06,12.71-37.94,25.59-56.83,38.47
			c-43.77,29.83-298.61,203.13-298.61,203.13c-21.71,16.41-62.47,42.18-78.01,34.06c-15.53-8.29-21-64.24-24.71-91.42l-0.88-6
			c-4.59-32.65-41.3-343.61-45.53-377.85c-1.24-9.71-7.24-45.18,3.88-53.3c11.82-8.65,41.83,1.24,51.89,4.41
			c58.77,18.53,353.14,121.07,444.74,167.13c2.65,1.41,5.65,2.65,8.65,3.88c13.06,5.47,31.06,13.06,31.41,34.94
			C1323.29,768.42,1307.23,778.13,1294.17,785.89z"/>
		<path class="st1" d="M823.67,583.29c102.18,34.41,338.67,118.24,450.03,167.66c-13.41,9-26.83,18.18-40.24,27.35
			c-51.89,35.3-353.49,240.55-353.49,240.55l-1.59,1.06l-1.41,1.06c0,0-0.18,0-0.18,0.18c-0.35-2.47-0.53-4.59-0.88-6.53l-1.59-12
			l-1.06-7.41c-3.88-27.53-28.24-231.9-42.71-354.02C827.9,618.76,825.43,599,823.67,583.29 M766.31,490.81
			c-6.53,0-12.35,1.06-16.41,4.06c-13.24,9.53-6,51.71-4.59,63.18c4.94,40.41,48.53,408.91,53.83,447.56l0.88,7.06
			c4.41,32.3,10.77,98.65,29.3,108.36c2.47,1.24,5.47,1.94,8.82,1.94c22.06,0,61.42-25.24,83.65-42.18
			c0,0,301.78-205.25,353.67-240.55c22.41-15.35,44.83-30.53,67.42-45.53c2.82-1.76,5.65-3.53,8.65-5.29
			c15.35-9.18,34.24-20.65,33.88-45.18c-0.53-25.77-21.71-34.77-37.24-41.3c-3.53-1.41-6.88-3-10.06-4.59
			c-108.36-54.53-457.09-175.95-526.62-198.01C802.67,497.52,782.37,490.81,766.31,490.81L766.31,490.81z"/>
	</g>
</g>
</svg>
